<svg width="179" height="193" viewBox="0 0 179 193" fill="none" xmlns="http://www.w3.org/2000/svg">
<path fill-rule="evenodd" clip-rule="evenodd" d="M78.5345 20.0102C115.192 19.3259 131.911 53.0499 143.525 81.381C155.584 110.796 168.841 147.076 138.144 165.418C107.236 183.886 66.2181 165.324 37.2287 144.895C15.8538 129.832 14.7546 105.878 22.1074 83.6476C31.3465 55.7139 43.0298 20.673 78.5345 20.0102Z" fill="#FF713F"/>
<g clip-path="url(#clip0_2_628)">
<path d="M71.4419 30.748C81.7954 30.5683 91.9376 33.9389 91.9376 33.9389C91.9376 33.9389 108.479 62.0576 110.501 68.4993C109.807 74.8511 99.0009 85.2626 99.0009 85.2626L71.4419 30.748Z" fill="#407BFF"/>
<path opacity="0.3" d="M71.4419 30.748C81.7954 30.5683 91.9376 33.9389 91.9376 33.9389C91.9376 33.9389 108.479 62.0576 110.501 68.4993C109.807 74.8511 99.0009 85.2626 99.0009 85.2626L71.4419 30.748Z" fill="white"/>
<path d="M120.628 167.342C114.38 159.477 108.252 151.477 103.181 142.803C101.913 140.631 100.706 138.429 99.574 136.182C98.9251 134.909 98.3063 133.62 97.7026 132.332C97.1743 131.208 95.9971 129.545 95.8915 128.317C94.0803 109.337 100.631 95.3596 94.3369 80.1243L69.4795 89.7718C69.4795 89.7718 71.5924 116.917 76.4221 133.156C79.4104 143.238 86.1869 151.957 92.722 160.031C94.7595 162.563 96.7366 165.14 98.7741 167.671C100.706 170.068 102.864 172.255 104.796 174.637C107.739 178.248 108.705 181.708 106.471 185.963C106.351 186.187 106.23 186.412 106.094 186.637C105.46 187.745 108.433 189.004 110.29 186.667C113.369 182.802 112.886 183.041 115.512 179.746C117.112 177.738 118.938 175.581 120.522 173.708C122.062 171.881 122.107 169.229 120.613 167.342H120.628Z" fill="#407BFF"/>
<path opacity="0.7" d="M120.628 167.342C114.38 159.477 108.252 151.477 103.181 142.803C101.913 140.631 100.706 138.429 99.574 136.182C98.9251 134.909 98.3063 133.62 97.7026 132.332C97.1743 131.208 95.9971 129.545 95.8915 128.317C94.0803 109.337 100.631 95.3596 94.3369 80.1243L69.4795 89.7718C69.4795 89.7718 71.5924 116.917 76.4221 133.156C79.4104 143.238 86.1869 151.957 92.722 160.031C94.7595 162.563 96.7366 165.14 98.7741 167.671C100.706 170.068 102.864 172.255 104.796 174.637C107.739 178.248 108.705 181.708 106.471 185.963C106.351 186.187 106.23 186.412 106.094 186.637C105.46 187.745 108.433 189.004 110.29 186.667C113.369 182.802 112.886 183.041 115.512 179.746C117.112 177.738 118.938 175.581 120.522 173.708C122.062 171.881 122.107 169.229 120.613 167.342H120.628Z" fill="white"/>
<path opacity="0.3" d="M114.546 159.537C111.21 163.537 104.449 168.705 101.476 170.802C102.125 171.521 102.774 172.255 103.407 172.989C109.55 169.005 114.395 163.851 116.236 161.754C115.663 161.02 115.104 160.286 114.546 159.537Z" fill="#407BFF"/>
<path opacity="0.3" d="M120.613 167.357C120.552 167.282 120.492 167.222 120.432 167.132C119.39 168.211 118.651 169.948 118.53 171.881C118.424 173.214 118.651 174.443 119.104 175.401C119.602 174.817 120.069 174.248 120.537 173.708C122.092 171.881 122.107 169.229 120.613 167.357Z" fill="#407BFF"/>
<path d="M65.5406 48.7248C62.9447 52.485 59.8809 56.1852 55.9116 59.4959C53.9495 61.1588 51.7007 62.6718 49.2407 63.9601C48.0031 64.5893 46.69 65.1286 45.3468 65.5781L44.3356 65.9076L44.0035 66.0125C43.7621 66.0874 43.5206 66.1473 43.2791 66.2072C42.8263 66.3121 42.3585 66.372 41.966 66.417C40.3361 66.5368 39.1437 66.3121 38.1778 66.0724C36.246 65.5481 34.9631 64.859 33.7406 64.1849C32.5332 63.4958 31.4918 62.7917 30.4957 62.0726C28.5337 60.5895 26.7528 59.0914 25.0926 57.5035C21.7571 54.3426 18.799 51.0618 16.0521 47.4065C14.7995 45.7437 15.1466 43.3917 16.8219 42.1483C18.1198 41.1895 19.8253 41.1746 21.1081 41.9835L21.2289 42.0584C24.7907 44.3055 28.3828 46.6725 31.8842 48.7847C33.6501 49.8184 35.3857 50.8671 37.0912 51.676C37.9212 52.0955 38.7513 52.485 39.4909 52.7546C40.2153 53.0392 40.9247 53.1891 41.1209 53.1591C41.1963 53.1591 41.1209 53.0542 40.5473 53.0692C40.4115 53.0692 40.2153 53.0992 40.0342 53.1291C39.9286 53.1441 39.8078 53.1741 39.7022 53.219C39.5965 53.249 39.7474 53.1891 39.7474 53.1891L40.2455 52.9344C40.9096 52.6048 41.5435 52.1854 42.1924 51.7509C43.4904 50.882 44.7129 49.7884 45.9656 48.575C48.4558 46.1332 50.8405 43.0771 53.3609 39.9012L53.3911 39.8563C55.9719 36.6055 60.7261 36.0512 64.0012 38.6279C67.1404 41.0847 67.7592 45.5339 65.5406 48.7548V48.7248Z" fill="#407BFF"/>
<path opacity="0.7" d="M65.5406 48.7248C62.9447 52.485 59.8809 56.1852 55.9116 59.4959C53.9495 61.1588 51.7007 62.6718 49.2407 63.9601C48.0031 64.5893 46.69 65.1286 45.3468 65.5781L44.3356 65.9076L44.0035 66.0125C43.7621 66.0874 43.5206 66.1473 43.2791 66.2072C42.8263 66.3121 42.3585 66.372 41.966 66.417C40.3361 66.5368 39.1437 66.3121 38.1778 66.0724C36.246 65.5481 34.9631 64.859 33.7406 64.1849C32.5332 63.4958 31.4918 62.7917 30.4957 62.0726C28.5337 60.5895 26.7528 59.0914 25.0926 57.5035C21.7571 54.3426 18.799 51.0618 16.0521 47.4065C14.7995 45.7437 15.1466 43.3917 16.8219 42.1483C18.1198 41.1895 19.8253 41.1746 21.1081 41.9835L21.2289 42.0584C24.7907 44.3055 28.3828 46.6725 31.8842 48.7847C33.6501 49.8184 35.3857 50.8671 37.0912 51.676C37.9212 52.0955 38.7513 52.485 39.4909 52.7546C40.2153 53.0392 40.9247 53.1891 41.1209 53.1591C41.1963 53.1591 41.1209 53.0542 40.5473 53.0692C40.4115 53.0692 40.2153 53.0992 40.0342 53.1291C39.9286 53.1441 39.8078 53.1741 39.7022 53.219C39.5965 53.249 39.7474 53.1891 39.7474 53.1891L40.2455 52.9344C40.9096 52.6048 41.5435 52.1854 42.1924 51.7509C43.4904 50.882 44.7129 49.7884 45.9656 48.575C48.4558 46.1332 50.8405 43.0771 53.3609 39.9012L53.3911 39.8563C55.9719 36.6055 60.7261 36.0512 64.0012 38.6279C67.1404 41.0847 67.7592 45.5339 65.5406 48.7548V48.7248Z" fill="white"/>
<path d="M10.3621 38.9425L12.1279 41.8936C12.1279 41.8936 13.4863 45.8186 16.1878 46.5377L23.5077 44.1857L23.1455 43.5715C22.2098 42.1483 22.3154 39.4218 22.6324 37.1448C22.9644 34.8677 21.7721 34.7928 20.8967 35.3471C20.3836 35.6767 20.0364 36.7103 19.6138 37.8339C19.2516 37.3395 18.8743 36.8601 18.4366 36.4407L16.2029 34.2236C15.237 33.2648 13.6825 33.2199 12.6713 34.1187L10.8602 35.7216C9.93952 36.5306 9.72823 37.8938 10.3621 38.9425Z" fill="#407BFF"/>
<path opacity="0.7" d="M10.3621 38.9425L12.1279 41.8936C12.1279 41.8936 13.4863 45.8186 16.1878 46.5377L23.5077 44.1857L23.1455 43.5715C22.2098 42.1483 22.3154 39.4218 22.6324 37.1448C22.9644 34.8677 21.7721 34.7928 20.8967 35.3471C20.3836 35.6767 20.0364 36.7103 19.6138 37.8339C19.2516 37.3395 18.8743 36.8601 18.4366 36.4407L16.2029 34.2236C15.237 33.2648 13.6825 33.2199 12.6713 34.1187L10.8602 35.7216C9.93952 36.5306 9.72823 37.8938 10.3621 38.9425Z" fill="white"/>
<path d="M78.8675 28.1714C71.8494 29.8642 62.2053 33.8341 55.7004 37.8639C53.3913 39.287 52.2442 41.9985 52.7876 44.6351C55.6853 58.7768 62.311 77.7124 69.4648 89.7718L102.834 76.0645C103.061 70.2221 94.9561 51.3165 86.7156 33.0401C85.2365 29.7593 82.3991 27.3175 78.8675 28.1564V28.1714Z" fill="#407BFF"/>
<path opacity="0.8" d="M78.8675 28.1714C71.8494 29.8642 62.2053 33.8341 55.7004 37.8639C53.3913 39.287 52.2442 41.9985 52.7876 44.6351C55.6853 58.7768 62.311 77.7124 69.4648 89.7718L102.834 76.0645C103.061 70.2221 94.9561 51.3165 86.7156 33.0401C85.2365 29.7593 82.3991 27.3175 78.8675 28.1564V28.1714Z" fill="white"/>
<path opacity="0.3" d="M91.8771 44.6351L85.2515 42.433C86.7305 46.283 92.0884 51.1517 95.8615 54.013C94.6239 51.0019 93.2807 47.8709 91.8771 44.6351Z" fill="#407BFF"/>
<path d="M76.6638 13.3256C73.917 8.11228 67.9554 5.49067 60.8015 6.08989C54.7645 6.58426 49.4217 12.7113 50.0556 16.0071C50.6895 19.3178 55.7606 20.711 56.6813 21.8645L52.5006 24.8756C50.4179 26.3737 50.0104 29.2949 51.5951 31.3023C53.3609 33.5195 55.6701 35.8415 57.0284 37.4744C68.5893 37.1748 77.1468 32.8004 80.2256 28.5759C79.1239 23.2128 79.4106 18.5238 76.6638 13.3256Z" fill="#407BFF"/>
<path opacity="0.8" d="M76.6638 13.3256C73.917 8.11228 67.9554 5.49067 60.8015 6.08989C54.7645 6.58426 49.4217 12.7113 50.0556 16.0071C50.6895 19.3178 55.7606 20.711 56.6813 21.8645L52.5006 24.8756C50.4179 26.3737 50.0104 29.2949 51.5951 31.3023C53.3609 33.5195 55.6701 35.8415 57.0284 37.4744C68.5893 37.1748 77.1468 32.8004 80.2256 28.5759C79.1239 23.2128 79.4106 18.5238 76.6638 13.3256Z" fill="white"/>
<path d="M71.0043 16.5614C73.2984 22.4038 70.4006 28.9803 64.5145 31.2574C58.6284 33.5345 52.0028 30.6582 49.7087 24.8157C47.4146 18.9733 50.3124 12.3967 56.1985 10.1197C62.0846 7.84263 68.7102 10.7189 71.0043 16.5614Z" fill="#263238"/>
<path d="M168.985 151.567C168.819 146.638 168.608 147.133 168.457 142.938C168.366 140.391 168.351 137.56 168.336 135.118C168.321 132.736 166.615 130.684 164.261 130.205C162.254 129.8 160.262 129.426 158.254 128.991C155.643 128.437 153.077 127.853 150.512 127.104C148.535 126.534 146.557 125.905 144.626 125.201C142.543 124.452 140.49 123.643 138.453 122.774C136.068 121.756 133.729 120.677 131.389 119.568C128.778 118.325 126.198 117.052 123.632 115.748C113.701 99.4194 113.49 88.6783 102.819 76.0496L79.939 86.3263C79.939 86.3263 96.7521 115.928 108.192 128.482C114.788 135.703 125.126 138.968 134.348 141.32C141.003 143.028 147.75 144.331 154.496 145.56C157.122 146.039 159.975 146.219 162.239 147.777C164.02 149.005 164.94 150.923 165.468 152.945C165.574 153.365 165.665 153.784 165.74 154.204C165.982 155.462 169.06 154.518 168.955 151.537L168.985 151.567Z" fill="#407BFF"/>
<path opacity="0.8" d="M168.985 151.567C168.819 146.638 168.608 147.133 168.457 142.938C168.366 140.391 168.351 137.56 168.336 135.118C168.321 132.736 166.615 130.684 164.261 130.205C162.254 129.8 160.262 129.426 158.254 128.991C155.643 128.437 153.077 127.853 150.512 127.104C148.535 126.534 146.557 125.905 144.626 125.201C142.543 124.452 140.49 123.643 138.453 122.774C136.068 121.756 133.729 120.677 131.389 119.568C128.778 118.325 126.198 117.052 123.632 115.748C113.701 99.4194 113.49 88.6783 102.819 76.0496L79.939 86.3263C79.939 86.3263 96.7521 115.928 108.192 128.482C114.788 135.703 125.126 138.968 134.348 141.32C141.003 143.028 147.75 144.331 154.496 145.56C157.122 146.039 159.975 146.219 162.239 147.777C164.02 149.005 164.94 150.923 165.468 152.945C165.574 153.365 165.665 153.784 165.74 154.204C165.982 155.462 169.06 154.518 168.955 151.537L168.985 151.567Z" fill="white"/>
<path opacity="0.3" d="M157.394 128.796C156.488 128.602 155.583 128.407 154.662 128.182C154.738 133.351 152.293 142.294 151.387 144.991C152.338 145.17 153.304 145.35 154.255 145.53C156.911 138.414 157.319 130.894 157.379 128.781L157.394 128.796Z" fill="#407BFF"/>
<path opacity="0.3" d="M168.351 135.103C168.336 132.706 166.646 130.669 164.291 130.19C163.823 130.1 163.325 129.995 162.857 129.905C162.963 131.313 163.838 132.946 165.318 134.249C166.283 135.118 167.385 135.688 168.381 135.957C168.381 135.658 168.381 135.373 168.366 135.103H168.351Z" fill="#407BFF"/>
<path d="M68.8611 16.6512C69.4648 18.9283 66.9142 21.3102 64.8616 19.3478C63.2014 17.7598 60.696 15.0783 58.6435 13.8199C56.5456 12.5166 59.3377 10.2395 62.643 11.1234C65.7219 11.9473 68.2423 14.3892 68.8611 16.6512Z" fill="white"/>
<path d="M69.042 89.0378C67.9855 89.4273 69.9174 91.225 69.9174 91.225C69.9174 91.225 91.0017 84.0492 103.861 76.6638C103.966 75.1207 102.834 74.2968 102.834 74.2968C102.834 74.2968 87.1832 82.3864 69.0269 89.0378H69.042Z" fill="#407BFF"/>
<path opacity="0.5" d="M69.042 89.0378C67.9855 89.4273 69.9174 91.225 69.9174 91.225C69.9174 91.225 91.0017 84.0492 103.861 76.6638C103.966 75.1207 102.834 74.2968 102.834 74.2968C102.834 74.2968 87.1832 82.3864 69.0269 89.0378H69.042Z" fill="white"/>
<path d="M84.5872 27.1677C88.7528 29.25 92.6617 31.4671 96.5858 33.909C98.5327 35.1224 100.48 36.3808 102.381 37.729C104.313 39.0473 106.2 40.4405 108.117 42.0135L108.826 42.5977L109.716 43.3917C110.35 43.946 110.818 44.4553 111.286 44.9647C111.769 45.489 112.176 45.9984 112.569 46.5077C112.976 47.017 113.369 47.5264 113.731 48.0207C115.225 50.0132 116.448 52.0356 117.64 54.043C119.964 58.1177 121.971 62.1775 123.632 66.5518C124.371 68.4993 123.375 70.6715 121.413 71.4055C119.934 71.9598 118.334 71.5404 117.308 70.4618L117.232 70.3869C114.199 67.196 111.286 63.8403 108.358 60.7094C105.49 57.5934 102.457 54.4025 99.9967 53.0093C96.5707 50.882 92.7523 48.7848 88.9641 46.7024L77.5541 40.4106H77.5239C73.8715 38.3882 72.5585 33.8341 74.5809 30.2087C76.558 26.6883 80.9801 25.355 84.5872 27.1527V27.1677Z" fill="#407BFF"/>
<path opacity="0.8" d="M84.5872 27.1677C88.7528 29.25 92.6617 31.4671 96.5858 33.909C98.5327 35.1224 100.48 36.3808 102.381 37.729C104.313 39.0473 106.2 40.4405 108.117 42.0135L108.826 42.5977L109.716 43.3917C110.35 43.946 110.818 44.4553 111.286 44.9647C111.769 45.489 112.176 45.9984 112.569 46.5077C112.976 47.017 113.369 47.5264 113.731 48.0207C115.225 50.0132 116.448 52.0356 117.64 54.043C119.964 58.1177 121.971 62.1775 123.632 66.5518C124.371 68.4993 123.375 70.6715 121.413 71.4055C119.934 71.9598 118.334 71.5404 117.308 70.4618L117.232 70.3869C114.199 67.196 111.286 63.8403 108.358 60.7094C105.49 57.5934 102.457 54.4025 99.9967 53.0093C96.5707 50.882 92.7523 48.7848 88.9641 46.7024L77.5541 40.4106H77.5239C73.8715 38.3882 72.5585 33.8341 74.5809 30.2087C76.558 26.6883 80.9801 25.355 84.5872 27.1527V27.1677Z" fill="white"/>
<path d="M127.254 73.8774L125.971 70.6865C125.971 70.6865 125.262 66.6117 122.696 65.4732L115.089 66.6567L115.361 67.3158C116.07 68.8588 115.527 71.5404 114.848 73.7425C114.169 75.9447 115.331 76.1994 116.282 75.7799C116.84 75.5402 117.353 74.5665 117.942 73.5178C118.213 74.0571 118.53 74.5964 118.893 75.0908L120.749 77.6225C121.549 78.7161 123.073 79.0007 124.22 78.2667L126.258 76.9634C127.299 76.3042 127.722 75.0009 127.269 73.8624L127.254 73.8774Z" fill="#407BFF"/>
<path opacity="0.8" d="M127.254 73.8774L125.971 70.6865C125.971 70.6865 125.262 66.6117 122.696 65.4732L115.089 66.6567L115.361 67.3158C116.07 68.8588 115.527 71.5404 114.848 73.7425C114.169 75.9447 115.331 76.1994 116.282 75.7799C116.84 75.5402 117.353 74.5665 117.942 73.5178C118.213 74.0571 118.53 74.5964 118.893 75.0908L120.749 77.6225C121.549 78.7161 123.073 79.0007 124.22 78.2667L126.258 76.9634C127.299 76.3042 127.722 75.0009 127.269 73.8624L127.254 73.8774Z" fill="white"/>
<path opacity="0.3" d="M78.2032 44.3954L76.3619 44.5452L65.0576 71.6303C65.7217 71.6752 66.3254 71.6303 66.8989 71.4804C66.8989 71.4804 81.6292 66.0275 86.0815 64.0351C83.0781 57.863 78.1881 44.3954 78.1881 44.3954H78.2032Z" fill="#407BFF"/>
<path d="M57.5717 51.4963C58.2056 56.3799 61.8882 66.7466 65.0576 71.6303C70.5815 69.7427 79.788 66.1773 84.2403 64.1849C81.2368 58.0128 78.0825 49.5038 76.3469 44.5452C71.5927 44.8598 61.2392 48.7398 57.5566 51.5112L57.5717 51.4963Z" fill="white"/>
<path opacity="0.3" d="M68.8004 57.3687C68.1816 59.406 66.0082 60.5745 63.9556 59.9603C61.9031 59.3461 60.7258 57.1889 61.3446 55.1515C61.9634 53.1142 64.1368 51.9457 66.1893 52.5599C68.2419 53.1741 69.4191 55.3313 68.8004 57.3687Z" fill="#407BFF"/>
<path opacity="0.6" d="M71.6833 52.2003C71.4871 52.8745 70.7778 53.249 70.0986 53.0542C69.4194 52.8595 69.0421 52.1554 69.2383 51.4813C69.4345 50.8071 70.1439 50.4326 70.823 50.6274C71.5022 50.8221 71.8795 51.5262 71.6833 52.2003Z" fill="#407BFF"/>
<path opacity="0.6" d="M75.049 50.897C74.8528 51.5711 74.1435 51.9457 73.4643 51.7509C72.7851 51.5562 72.4078 50.8521 72.604 50.1779C72.8002 49.5038 73.5247 49.1293 74.1888 49.3241C74.8679 49.5188 75.2452 50.2229 75.049 50.897Z" fill="#407BFF"/>
<path opacity="0.5" d="M79.8029 62.567L65.8423 68.0349L64.9971 65.3084L78.9577 59.8405L79.8029 62.567Z" fill="#407BFF"/>
</g>
<defs>
<clipPath id="clip0_2_628">
<rect width="159" height="182" fill="white" transform="translate(10 6)"/>
</clipPath>
</defs>
</svg>
