<svg width="24" height="30" viewBox="0 0 24 30" fill="none" xmlns="http://www.w3.org/2000/svg">
<path fill-rule="evenodd" clip-rule="evenodd" d="M13.0485 21.1179C12.0495 22.2429 10.6978 23.0475 9.16669 23.3583V27.75C9.16669 28.5324 8.53242 29.1667 7.75002 29.1667C6.96762 29.1667 6.33335 28.5324 6.33335 27.75V23.3583C3.10018 22.702 0.666687 19.8435 0.666687 16.4167V7.91667C0.666687 4.00465 3.838 0.833336 7.75002 0.833336C11.4457 0.833336 14.4803 3.66357 14.8047 7.27481C15.6446 6.78234 16.6227 6.5 17.6667 6.5C20.7963 6.5 23.3334 9.03706 23.3334 12.1667V17.8333C23.3334 20.4738 21.5274 22.6924 19.0834 23.3215V27.75C19.0834 28.5324 18.4491 29.1667 17.6667 29.1667C16.8843 29.1667 16.25 28.5324 16.25 27.75V23.3215C14.9392 22.9841 13.812 22.1895 13.0485 21.1179ZM12 7.91667V16.4167C12 18.2671 10.8174 19.8414 9.16669 20.4248V16.4167C9.16669 15.6343 8.53242 15 7.75002 15C6.96762 15 6.33335 15.6343 6.33335 16.4167V20.4248C4.68266 19.8414 3.50002 18.2671 3.50002 16.4167V7.91667C3.50002 5.56946 5.40281 3.66667 7.75002 3.66667C10.0972 3.66667 12 5.56946 12 7.91667ZM19.0834 20.2876V16.4167C19.0834 15.6343 18.4491 15 17.6667 15C16.8843 15 16.25 15.6343 16.25 16.4167V20.2876C15.4031 19.7977 14.8334 18.8821 14.8334 17.8333V12.1667C14.8334 10.6019 16.1019 9.33334 17.6667 9.33334C19.2315 9.33334 20.5 10.6019 20.5 12.1667V17.8333C20.5 18.8821 19.9302 19.7977 19.0834 20.2876Z" fill="#1E2022"/>
</svg>
